<svg width="995" height="184" viewBox="0 0 995 184" fill="none" xmlns="http://www.w3.org/2000/svg">
<path d="M79.17 136.19H69.2737H59.3775H49.4812H39.585H29.6887H19.7925V126.294H9.89625H0V116.397V106.501H9.89625H19.7925H29.6887V96.6049H19.7925V86.7087H9.89625V76.8124V66.9162V57.0199V47.1237H19.7925V37.2274H29.6887H39.585V27.3312H49.4812H59.3775V37.2274H69.2737H79.17H89.0662V47.1237H98.9625V57.0199V66.9162H89.0662H79.17V57.0199H69.2737V66.9162H79.17V76.8124H89.0662V86.7087H98.9625V96.6049V106.501V116.397V126.294H89.0662V136.19H79.17ZM158.34 136.19H148.444H138.547V126.294H128.651V116.397V106.501V96.6049V86.7087V76.8124V66.9162H118.755H108.859V57.0199H118.755V47.1237H128.651H138.547H148.444H158.34H168.236H178.132H188.029H197.925V57.0199V66.9162H188.029H178.132V76.8124V86.7087V96.6049V106.501V116.397V126.294H168.236V136.19H158.34ZM277.095 136.19H267.199H257.302H247.406H237.51H227.614V126.294H217.717V116.397V106.501H207.821V96.6049V86.7087V76.8124V66.9162V57.0199H217.717V47.1237H227.614H237.51H247.406H257.302V57.0199V66.9162V76.8124V86.7087V96.6049V106.501H267.199H277.095V96.6049V86.7087V76.8124V66.9162V57.0199V47.1237H286.991H296.887V57.0199V66.9162V76.8124V86.7087V96.6049V106.501V116.397V126.294H286.991V136.19H277.095ZM366.161 136.19H356.265H346.369H336.473H326.576H316.68V126.294H306.784V116.397V106.501V96.6049V86.7087V76.8124V66.9162V57.0199H316.68V47.1237H326.576H336.473H346.369H356.265H366.161V57.0199H376.058H385.954V66.9162H395.85V76.8124V86.7087V96.6049V106.501V116.397H385.954V126.294H376.058V136.19H366.161ZM366.161 116.397V106.501H376.058V96.6049V86.7087V76.8124H366.161H356.265V86.7087V96.6049V106.501V116.397H366.161ZM465.124 136.19H455.227H445.331H435.435V126.294V116.397V106.501V96.6049H425.539V86.7087V76.8124H415.642V66.9162V57.0199H405.746V47.1237H415.642H425.539H435.435H445.331V57.0199H455.227V66.9162H465.124H475.02V57.0199V47.1237H484.916H494.812H504.709V57.0199H494.812V66.9162V76.8124H484.916V86.7087V96.6049H475.02V106.501V116.397V126.294V136.19H465.124ZM573.982 136.19H564.086H554.19V126.294V116.397H544.294V106.501H534.397V96.6049V86.7087V76.8124H524.501V66.9162V57.0199H514.605V47.1237V37.2274H524.501H534.397H544.294H554.19H564.086V47.1237H573.982V57.0199V66.9162H583.879V76.8124H593.775V66.9162V57.0199V47.1237H603.671V37.2274H613.567H623.464V47.1237V57.0199V66.9162H613.567V76.8124V86.7087V96.6049H603.671V106.501V116.397H593.775V126.294H583.879V136.19H573.982ZM663.049 136.19H653.152H643.256V126.294H633.36V116.397V106.501V96.6049V86.7087V76.8124V66.9162V57.0199H643.256V47.1237H653.152H663.049H672.945H682.841V57.0199V66.9162V76.8124V86.7087V96.6049V106.501V116.397V126.294H672.945V136.19H663.049ZM762.011 136.19H752.115H742.219H732.322H722.426H712.53H702.634V126.294V116.397H692.737V106.501V96.6049V86.7087V76.8124V66.9162V57.0199H702.634V47.1237H712.53H722.426H732.322H742.219V57.0199V66.9162V76.8124V86.7087V96.6049V106.501H752.115V116.397H762.011H771.907V126.294V136.19H762.011ZM851.077 136.19H841.181H831.285H821.389H811.492H801.596H791.7V126.294V116.397H781.804V106.501V96.6049V86.7087V76.8124V66.9162V57.0199H791.7V47.1237H801.596H811.492H821.389H831.285V57.0199V66.9162V76.8124V86.7087V96.6049V106.501H841.181V116.397H851.077H860.974V126.294V136.19H851.077ZM950.04 136.19H940.144H930.247H920.351H910.455H900.559H890.662H880.766V126.294H870.87V116.397V106.501V96.6049V86.7087V76.8124V66.9162V57.0199V47.1237H880.766V37.2274H890.662H900.559H910.455H920.351H930.247H940.144H950.04H959.936V47.1237H969.832V57.0199H959.936H950.04H940.144V66.9162H930.247V76.8124H940.144H950.04H959.936V86.7087V96.6049H950.04H940.144H930.247V106.501H940.144H950.04H959.936V116.397H969.832V126.294H959.936V136.19H950.04Z" fill="#BB6271"/>
<path d="M94.14 126H84.2437H74.3475H64.4512H54.555H44.6587H34.7625V116.104H24.8662H14.97V106.208V96.3113H24.8662H34.7625H44.6587V86.415H34.7625V76.5188H24.8662V66.6225V56.7263V46.83V36.9338H34.7625V27.0375H44.6587H54.555V17.1413H64.4512H74.3475V27.0375H84.2437H94.14H104.036V36.9338H113.932V46.83V56.7263H104.036H94.14V46.83H84.2437V56.7263H94.14V66.6225H104.036V76.5188H113.932V86.415V96.3113V106.208V116.104H104.036V126H94.14ZM173.31 126H163.414H153.517V116.104H143.621V106.208V96.3113V86.415V76.5188V66.6225V56.7263H133.725H123.829V46.83H133.725V36.9338H143.621H153.517H163.414H173.31H183.206H193.102H202.999H212.895V46.83V56.7263H202.999H193.102V66.6225V76.5188V86.415V96.3113V106.208V116.104H183.206V126H173.31ZM292.065 126H282.169H272.272H262.376H252.48H242.584V116.104H232.687V106.208V96.3113H222.791V86.415V76.5188V66.6225V56.7263V46.83H232.687V36.9338H242.584H252.48H262.376H272.272V46.83V56.7263V66.6225V76.5188V86.415V96.3113H282.169H292.065V86.415V76.5188V66.6225V56.7263V46.83V36.9338H301.961H311.857V46.83V56.7263V66.6225V76.5188V86.415V96.3113V106.208V116.104H301.961V126H292.065ZM381.131 126H371.235H361.339H351.442H341.546H331.65V116.104H321.754V106.208V96.3113V86.415V76.5188V66.6225V56.7263V46.83H331.65V36.9338H341.546H351.442H361.339H371.235H381.131V46.83H391.027H400.924V56.7263H410.82V66.6225V76.5188V86.415V96.3113V106.208H400.924V116.104H391.027V126H381.131ZM381.131 106.208V96.3113H391.027V86.415V76.5188V66.6225H381.131H371.235V76.5188V86.415V96.3113V106.208H381.131ZM480.094 126H470.197H460.301H450.405V116.104V106.208V96.3113V86.415H440.509V76.5188V66.6225H430.612V56.7263V46.83H420.716V36.9338H430.612H440.509H450.405H460.301V46.83H470.197V56.7263H480.094H489.99V46.83V36.9338H499.886H509.782H519.679V46.83H509.782V56.7263V66.6225H499.886V76.5188V86.415H489.99V96.3113V106.208V116.104V126H480.094ZM588.952 126H579.056H569.16V116.104V106.208H559.264V96.3113H549.367V86.415V76.5188V66.6225H539.471V56.7263V46.83H529.575V36.9338V27.0375H539.471H549.367H559.264H569.16H579.056V36.9338H588.952V46.83V56.7263H598.849V66.6225H608.745V56.7263V46.83V36.9338H618.641V27.0375H628.537H638.434V36.9338V46.83V56.7263H628.537V66.6225V76.5188V86.415H618.641V96.3113V106.208H608.745V116.104H598.849V126H588.952ZM678.019 126H668.122H658.226V116.104H648.33V106.208V96.3113V86.415V76.5188V66.6225V56.7263V46.83H658.226V36.9338H668.122H678.019H687.915H697.811V46.83V56.7263V66.6225V76.5188V86.415V96.3113V106.208V116.104H687.915V126H678.019ZM776.981 126H767.085H757.189H747.292H737.396H727.5H717.604V116.104V106.208H707.707V96.3113V86.415V76.5188V66.6225V56.7263V46.83H717.604V36.9338H727.5H737.396H747.292H757.189V46.83V56.7263V66.6225V76.5188V86.415V96.3113H767.085V106.208H776.981H786.877V116.104V126H776.981ZM866.047 126H856.151H846.255H836.359H826.462H816.566H806.67V116.104V106.208H796.774V96.3113V86.415V76.5188V66.6225V56.7263V46.83H806.67V36.9338H816.566H826.462H836.359H846.255V46.83V56.7263V66.6225V76.5188V86.415V96.3113H856.151V106.208H866.047H875.944V116.104V126H866.047ZM965.01 126H955.114H945.217H935.321H925.425H915.529H905.632H895.736V116.104H885.84V106.208V96.3113V86.415V76.5188V66.6225V56.7263V46.83V36.9338H895.736V27.0375H905.632H915.529H925.425H935.321H945.217H955.114H965.01H974.906V36.9338H984.802V46.83H974.906H965.01H955.114V56.7263H945.217V66.6225H955.114H965.01H974.906V76.5188V86.415H965.01H955.114H945.217V96.3113H955.114H965.01H974.906V106.208H984.802V116.104H974.906V126H965.01Z" fill="#E0B05D"/>
</svg>
